HIERARCHY
ROOT Hips
{
	OFFSET 0.000000 0.000000 0.000000
	CHANNELS 6 Xposition Yposition Zposition Zrotation Yrotation Xrotation 
	JOINT LowerBack
	{
		OFFSET 0.000000 0.000000 0.000000
		CHANNELS 3 Zrotation Yrotation Xrotation
		JOINT Spine
		{
			OFFSET 0.028270 2.035590 -0.193380
			CHANNELS 3 Zrotation Yrotation Xrotation
			JOINT Spine1
			{
				OFFSET 0.056720 2.048850 -0.042750
				CHANNELS 3 Zrotation Yrotation Xrotation
				JOINT Neck
				{
					OFFSET 0.000000 0.000000 0.000000
					CHANNELS 3 Zrotation Yrotation Xrotation
					JOINT Neck1
					{
						OFFSET -0.054170 1.746240 0.172020
						CHANNELS 3 Zrotation Yrotation Xrotation
						JOINT Head
						{
							OFFSET 0.104070 1.761360 -0.123970
							CHANNELS 3 Zrotation Yrotation Xrotation
							End Site
							{
								OFFSET 0.000000 0.000000 0.000000
							}
						}
					}
				}
				JOINT LeftShoulder
				{
					OFFSET 0.000000 0.000000 0.000000
					CHANNELS 3 Zrotation Yrotation Xrotation
					JOINT LeftArm
					{
						OFFSET 3.362410 1.200890 -0.311210
						CHANNELS 3 Zrotation Yrotation Xrotation
						JOINT LeftForeArm
						{
							OFFSET 4.983000 -0.000000 -0.000000
							CHANNELS 3 Zrotation Yrotation Xrotation
							JOINT LeftHand
							{
								OFFSET 3.483560 -0.000000 -0.000000
								CHANNELS 3 Zrotation Yrotation Xrotation
								JOINT LeftFingerBase
								{
									OFFSET 0.000000 0.000000 0.000000
									CHANNELS 3 Zrotation Yrotation Xrotation
									JOINT LeftHandIndex1
									{
										OFFSET 0.715260 -0.000000 -0.000000
										CHANNELS 3 Zrotation Yrotation Xrotation
										End Site
										{
											OFFSET 0.000000 0.000000 0.000000
										}
									}
								}
								JOINT LThumb
								{
									OFFSET 0.000000 0.000000 0.000000
									CHANNELS 3 Zrotation Yrotation Xrotation
									End Site
									{
										OFFSET 0.000000 0.000000 0.000000
									}
								}
							}
						}
					}
				}
				JOINT RightShoulder
				{
					OFFSET 0.000000 0.000000 0.000000
					CHANNELS 3 Zrotation Yrotation Xrotation
					JOINT RightArm
					{
						OFFSET -3.136600 1.374050 -0.404650
						CHANNELS 3 Zrotation Yrotation Xrotation
						JOINT RightForeArm
						{
							OFFSET -5.241900 -0.000000 -0.000000
							CHANNELS 3 Zrotation Yrotation Xrotation
							JOINT RightHand
							{
								OFFSET -3.444170 -0.000000 -0.000000
								CHANNELS 3 Zrotation Yrotation Xrotation
								JOINT RightFingerBase
								{
									OFFSET 0.000000 0.000000 0.000000
									CHANNELS 3 Zrotation Yrotation Xrotation
									JOINT RightHandIndex1
									{
										OFFSET -0.622530 -0.000000 -0.000000
										CHANNELS 3 Zrotation Yrotation Xrotation
										End Site
										{
											OFFSET 0.000000 0.000000 0.000000
										}
									}
								}
								JOINT RThumb
								{
									OFFSET 0.000000 0.000000 0.000000
									CHANNELS 3 Zrotation Yrotation Xrotation
									End Site
									{
										OFFSET 0.000000 0.000000 0.000000
									}
								}
							}
						}
					}
				}
			}
		}
	}
}
}
MOTION
Frames: 12
Frame Time: 0.008333
5.464306 17.257843 -1.797885 66.778990 -87.526545 -31.213049 -3.550457 -1.122155 -3.808358 -1.426980 -1.031721 -3.991085 -5.787665 -1.150903 -0.517810 8.917334 -7.449674 -8.966794 -2.890908 -0.181027 -0.664251 0.000000 0.000000 0.000000 0.164245 4.908165 2.504201 -62.343470 -6.275540 -16.907002 -0.937555 -64.941147 -0.069530 19.534236 -8.926609 -1.611437 -0.218204 0.321060 0.000000 0.000000 0.000000 0.000000 0.000000 0.000000 0.000000 10.711620 -3.637319 1.964313 62.305736 7.618198 -7.867629 0.777708 62.317319 -0.052065 -13.700894 10.935202 -1.378550 0.168872 -0.369870 0.000000 0.000000 0.000000 0.000000 0.000000 0.000000 0.000000 
5.474067 17.257720 -1.801936 73.028197 -88.040225 -37.640968 -3.334569 -1.110862 -3.607864 -1.377324 -1.031756 -3.948654 -5.803664 -1.149891 -0.545105 8.985455 -7.300690 -8.875912 -2.895536 -0.182298 -0.640972 0.000000 0.000000 0.000000 0.319094 4.884588 2.506504 -62.216627 -6.073400 -17.021289 -0.914795 -65.362860 -0.070566 19.570810 -8.883308 -1.607434 -0.219667 0.323787 0.000000 0.000000 0.000000 0.000000 0.000000 0.000000 0.000000 10.765580 -3.491429 1.951265 62.226759 8.138095 -7.629247 0.778111 62.163145 -0.052530 -13.743793 11.006012 -1.391757 0.168691 -0.371498 0.000000 0.000000 0.000000 0.000000 0.000000 0.000000 0.000000 
5.477004 17.262092 -1.810728 80.546798 -88.343264 -45.339975 -3.240373 -1.159872 -3.457415 -1.349919 -1.084819 -3.910191 -5.823808 -1.203154 -0.563592 9.076723 -7.201762 -8.803387 -2.894827 -0.183067 -0.620851 0.000000 0.000000 0.000000 0.519159 4.825675 2.512600 -62.052417 -5.715417 -17.093900 -0.896048 -65.827130 -0.071381 19.591970 -8.817763 -1.598321 -0.221779 0.326155 0.000000 0.000000 0.000000 0.000000 0.000000 0.000000 0.000000 10.820357 -3.409774 1.928538 62.313565 8.548877 -7.393708 0.775515 62.037202 -0.052859 -13.762959 11.067499 -1.401359 0.167962 -0.372623 0.000000 0.000000 0.000000 0.000000 0.000000 0.000000 0.000000 
5.472918 17.269966 -1.823739 88.325231 -88.433152 -53.265850 -3.278558 -1.259612 -3.395421 -1.349887 -1.181519 -3.883107 -5.847168 -1.300939 -0.566532 9.180881 -7.160688 -8.751606 -2.888705 -0.183346 -0.604063 0.000000 0.000000 0.000000 0.747314 4.755490 2.519656 -61.844113 -5.248528 -17.106752 -0.883271 -66.298789 -0.071868 19.591206 -8.737088 -1.584597 -0.224554 0.328054 0.000000 0.000000 0.000000 0.000000 0.000000 0.000000 0.000000 10.867882 -3.396457 1.893560 62.555522 8.834174 -7.157136 0.770417 61.968153 -0.053013 -13.753931 11.110968 -1.405754 0.166854 -0.373241 0.000000 0.000000 0.000000 0.000000 0.000000 0.000000 0.000000 
5.462556 17.280280 -1.839673 95.144519 -88.348992 -60.204463 -3.427004 -1.392662 -3.415799 -1.374785 -1.305547 -3.867381 -5.871522 -1.426277 -0.552938 9.281887 -7.181336 -8.721236 -2.876442 -0.183058 -0.590893 0.000000 0.000000 0.000000 0.975922 4.693213 2.525984 -61.589952 -4.709589 -17.059896 -0.876429 -66.760706 -0.071988 19.563526 -8.643312 -1.566262 -0.227786 0.329343 0.000000 0.000000 0.000000 0.000000 0.000000 0.000000 0.000000 10.890264 -3.448566 1.846198 62.931898 8.998745 -6.913266 0.763123 61.974930 -0.053009 -13.716137 11.128591 -1.403942 0.165543 -0.373480 0.000000 0.000000 0.000000 0.000000 0.000000 0.000000 0.000000 
5.446800 17.291985 -1.857151 100.393966 -88.144554 -65.553843 -3.646996 -1.541116 -3.508301 -1.416933 -1.441054 -3.861905 -5.895863 -1.562952 -0.522341 9.368655 -7.265802 -8.712849 -2.858293 -0.182196 -0.581734 0.000000 0.000000 0.000000 1.182295 4.657620 2.529887 -61.292966 -4.139787 -16.954098 -0.875214 -67.196506 -0.071712 19.507345 -8.540251 -1.544021 -0.231260 0.329906 0.000000 0.000000 0.000000 0.000000 0.000000 0.000000 0.000000 10.878784 -3.562047 1.787035 63.409479 9.047762 -6.657507 0.754130 62.076648 -0.052867 -13.651479 11.115051 -1.395525 0.164225 -0.373464 0.000000 0.000000 0.000000 0.000000 0.000000 0.000000 0.000000 
5.426400 17.304085 -1.874617 104.115498 -87.869313 -69.363408 -3.894760 -1.690649 -3.661606 -1.466202 -1.576124 -3.865327 -5.919233 -1.698917 -0.475540 9.432442 -7.414570 -8.725914 -2.835134 -0.180818 -0.576709 0.000000 0.000000 0.000000 1.346398 4.657385 2.530023 -60.960905 -3.573751 -16.793647 -0.879013 -67.595614 -0.071030 19.423552 -8.433188 -1.518873 -0.234778 0.329658 0.000000 0.000000 0.000000 0.000000 0.000000 0.000000 0.000000 10.829281 -3.733536 1.717928 63.946744 8.985332 -6.388940 0.744020 62.290419 -0.052606 -13.563372 11.068526 -1.380702 0.163084 -0.373315 0.000000 0.000000 0.000000 0.000000 0.000000 0.000000 0.000000 
5.402538 17.315776 -1.891232 106.641190 -87.554027 -71.994570 -4.144808 -1.837847 -3.840112 -1.515709 -1.708146 -3.871255 -5.940735 -1.831281 -0.413466 9.473750 -7.619353 -8.760860 -2.808428 -0.178958 -0.576655 0.000000 0.000000 0.000000 1.463104 4.713689 2.526804 -60.604482 -3.052028 -16.588443 -0.887287 -67.949606 -0.070005 19.316061 -8.327008 -1.492020 -0.238223 0.328714 0.000000 0.000000 0.000000 0.000000 0.000000 0.000000 0.000000 10.749608 -3.955477 1.639223 64.503442 8.833316 -6.099145 0.732567 62.618259 -0.052273 -13.459155 10.988284 -1.360274 0.162177 -0.373075 -0.000000 0.000000 0.000000 0.000000 0.000000 0.000000 0.000000 
5.375689 17.326249 -1.905135 108.387227 -87.230434 -73.857300 -4.361810 -1.970144 -4.048261 -1.557316 -1.827163 -3.882195 -5.959525 -1.950249 -0.339722 9.486786 -7.880048 -8.814353 -2.779828 -0.176808 -0.580570 0.000000 0.000000 0.000000 1.518613 4.808457 2.518495 -60.238706 -2.581309 -16.350222 -0.898563 -68.263633 -0.068660 19.192406 -8.227074 -1.465164 -0.241452 0.327013 -0.000000 0.000000 0.000000 0.000000 0.000000 0.000000 0.000000 10.640602 -4.224857 1.555787 65.033980 8.588368 -5.796334 0.721008 63.070084 -0.051860 -13.343219 10.882699 -1.335944 0.161708 -0.372876 -0.000000 0.000000 0.000000 0.000000 0.000000 0.000000 0.000000 
5.356083 17.339318 -1.931591 118.149843 -86.520222 -83.773357 -5.059492 -2.008293 -4.210333 -1.713056 -1.816822 -3.882442 -5.998746 -1.940828 -0.269401 9.614602 -8.180983 -8.893774 -2.758703 -0.174701 -0.597574 0.000000 0.000000 0.000000 1.754067 4.965234 2.496206 -59.825220 -2.219621 -16.163476 -0.901981 -68.486178 -0.067286 19.059831 -8.140812 -1.440030 -0.244590 0.325344 -0.000000 0.000000 0.000000 0.000000 0.000000 0.000000 0.000000 10.719842 -4.463396 1.488433 65.602795 8.382006 -5.521200 0.713902 63.597848 -0.051777 -13.222365 10.760705 -1.309403 0.161031 -0.373977 -0.000000 0.000000 0.000000 0.000000 0.000000 0.000000 0.000000 
5.325613 17.346349 -1.938277 118.655657 -86.221201 -84.476726 -5.174356 -2.100852 -4.400832 -1.731255 -1.901361 -3.891170 -6.013007 -2.023906 -0.179932 9.591500 -8.523109 -8.980892 -2.732204 -0.172313 -0.609965 0.000000 0.000000 0.000000 1.704750 5.155913 2.477873 -59.486463 -1.895601 -15.908626 -0.916033 -68.727948 -0.065573 18.928995 -8.067105 -1.417274 -0.247208 0.322616 0.000000 0.000000 0.000000 0.000000 0.000000 0.000000 0.000000 10.599067 -4.798045 1.401641 65.985451 8.019963 -5.188736 0.703329 64.252350 -0.051252 -13.102167 10.627195 -1.281866 0.161546 -0.373916 0.000000 0.000000 0.000000 0.000000 0.000000 0.000000 0.000000 
5.293642 17.351285 -1.940527 119.165624 -85.959085 -85.223435 -5.223584 -2.172589 -4.577024 -1.734105 -1.969533 -3.898927 -6.024033 -2.090131 -0.086973 9.556615 -8.891031 -9.079375 -2.708512 -0.170008 -0.625226 0.000000 0.000000 0.000000 1.615559 5.378100 2.454197 -59.188221 -1.633691 -15.670279 -0.929520 -68.947837 -0.063808 18.808756 -8.010785 -1.398319 -0.249520 0.319608 0.000000 0.000000 0.000000 0.000000 0.000000 0.000000 0.000000 10.484769 -5.151870 1.316968 66.263017 7.617418 -4.852219 0.693599 64.977297 -0.050667 -12.985574 10.496418 -1.255327 0.162559 -0.373937 0.000000 0.000000 0.000000 0.000000 0.000000 0.000000 0.000000 
